<svg xmlns="http://www.w3.org/2000/svg" width="1200" height="800" viewBox="0 0 1200 800">
  <defs>
    <linearGradient id="bg" x1="0" y1="0" x2="1" y2="1">
      <stop offset="0" stop-color="#c9f2d0"/>
      <stop offset="1" stop-color="#7ccf8e"/>
    </linearGradient>
  </defs>
  <rect width="1200" height="800" fill="url(#bg)"/>
  <circle cx="1030" cy="140" r="70" fill="#fff7b0"/>
  <rect y="520" width="1200" height="280" fill="#5aa76f"/>
  <path d="M180 560c50-130 180-130 230 0h-70c-20-60-70-60-90 0z" fill="#2f6f45"/>
  <path d="M420 560c50-130 180-130 230 0h-70c-20-60-70-60-90 0z" fill="#2f6f45"/>
  <path d="M660 560c50-130 180-130 230 0h-70c-20-60-70-60-90 0z" fill="#2f6f45"/>
  <text x="70" y="120" fill="#1f4f33" font-family="Segoe UI, Arial" font-size="62" font-weight="700">Agriculture</text>
  <text x="70" y="182" fill="#2f6f45" font-family="Segoe UI, Arial" font-size="30">Fresh produce and farm exports</text>
</svg>
